<svg xmlns="http://www.w3.org/2000/svg" width="58" height="60" viewBox="0 0 58 60">
  <g id="المستندات" transform="translate(-8.153 0)">
    <path id="Path_2401" data-name="Path 2401" d="M66.112,53.967,59.243,3.678A4.21,4.21,0,0,0,54.52.041L46.041,1.218A4.209,4.209,0,0,0,42.5,4.962V4.32A4.3,4.3,0,0,0,38.206.041H29.619a4.3,4.3,0,0,0-4.293,4.28A4.3,4.3,0,0,0,21.033.041H12.446A4.3,4.3,0,0,0,8.153,4.32V55.679a4.3,4.3,0,0,0,4.293,4.28h8.587a4.3,4.3,0,0,0,4.293-4.28,4.3,4.3,0,0,0,4.293,4.28h8.587a4.3,4.3,0,0,0,4.293-4.28V6.032l6.869,50.289a4.21,4.21,0,0,0,4.723,3.638l8.372-1.177A4.245,4.245,0,0,0,66.112,53.967Z" transform="translate(0 0)" fill="#f9a21b"/>
    <path id="Path_2402" data-name="Path 2402" d="M308.708,72.3l-4.066.535a2.079,2.079,0,0,1-2.354-1.819l-4.6-33.49a2.079,2.079,0,0,1,1.819-2.354l4.173-.535a2.079,2.079,0,0,1,2.354,1.819l4.6,33.49A2.294,2.294,0,0,1,308.708,72.3Z" transform="translate(-250.621 -29.998)" fill="#fff"/>
    <circle id="Ellipse_17" data-name="Ellipse 17" cx="4.28" cy="4.28" r="4.28" transform="translate(12.433 47.119)" fill="#e48f0d"/>
    <path id="Path_2403" data-name="Path 2403" d="M46.573,70.824h-4.28a2.146,2.146,0,0,1-2.14-2.14V34.445a2.146,2.146,0,0,1,2.14-2.14h4.28a2.146,2.146,0,0,1,2.14,2.14V68.684A2.146,2.146,0,0,1,46.573,70.824Z" transform="translate(-27.72 -27.985)" fill="#fff"/>
    <path id="Path_2404" data-name="Path 2404" d="M148.993,60.223h-8.56a4.292,4.292,0,0,1-4.28-4.28V4.585A4.292,4.292,0,0,1,140.433.3h8.56a4.292,4.292,0,0,1,4.28,4.28V55.943A4.292,4.292,0,0,1,148.993,60.223Z" transform="translate(-110.804 -0.264)" fill="#e48f0d"/>
    <circle id="Ellipse_18" data-name="Ellipse 18" cx="4.28" cy="4.28" r="4.28" transform="translate(29.631 47.119)" fill="#f9a21b"/>
    <path id="Path_2405" data-name="Path 2405" d="M174.573,70.824h-4.28a2.146,2.146,0,0,1-2.14-2.14V34.445a2.146,2.146,0,0,1,2.14-2.14h4.28a2.146,2.146,0,0,1,2.14,2.14V68.684A2.146,2.146,0,0,1,174.573,70.824Z" transform="translate(-138.522 -27.985)" fill="#fff"/>
    <path id="Path_2406" data-name="Path 2406" d="M350.527,353.278A4.244,4.244,0,0,1,347,358.093a4.2,4.2,0,0,1-4.708-3.638,4.244,4.244,0,0,1,3.531-4.815A4.087,4.087,0,0,1,350.527,353.278Z" transform="translate(-289.23 -302.842)" fill="#e48f0d"/>
  </g>
</svg>
