<svg xmlns="http://www.w3.org/2000/svg" width="62" height="64" viewBox="0 0 62 64">
  <g id="المصروفات" transform="translate(-8.241 0)">
    <path id="Path_2319" data-name="Path 2319" d="M80.156,175.275h-50.2a2.245,2.245,0,0,0-2.244,2.246v6.033H82.4v-6.033A2.245,2.245,0,0,0,80.156,175.275Z" transform="translate(-17.032 -153.371)" fill="#ffb125"/>
    <path id="Path_2320" data-name="Path 2320" d="M79.031,43.592l-4.55,45.966a2.1,2.1,0,0,1-2.3,1.884L49.125,89.17a2.1,2.1,0,0,1-1.888-2.3l4.55-45.966a2.1,2.1,0,0,1,2.3-1.884L77.143,41.3A2.1,2.1,0,0,1,79.031,43.592Z" transform="translate(-34.104 -34.127)" fill="#b6fa4c"/>
    <path id="Path_2321" data-name="Path 2321" d="M106.152,41.294,83.1,39.022a2.1,2.1,0,0,0-2.3,1.884l-.408,4.124a2.1,2.1,0,0,1,1.158-.218L104.6,47.084a2.1,2.1,0,0,1,1.888,2.3l-4.142,41.842a2.1,2.1,0,0,0,1.144-1.666l4.55-45.965A2.1,2.1,0,0,0,106.152,41.294Z" transform="translate(-63.112 -34.127)" fill="#a8e83a"/>
    <path id="Path_2322" data-name="Path 2322" d="M79.929,77.627l-3.319,33.6a1.272,1.272,0,0,0,.589,1.205,6.173,6.173,0,0,1,2.487,3,1.271,1.271,0,0,0,1.062.8L92.7,117.421a1.27,1.27,0,0,0,1.2-.578,6.174,6.174,0,0,1,3.026-2.459,1.272,1.272,0,0,0,.814-1.067l3.319-33.6a1.272,1.272,0,0,0-.589-1.205,6.173,6.173,0,0,1-2.487-3,1.271,1.271,0,0,0-1.062-.8L84.966,73.524a1.27,1.27,0,0,0-1.2.578,6.174,6.174,0,0,1-3.026,2.459A1.272,1.272,0,0,0,79.929,77.627Z" transform="translate(-59.802 -64.313)" fill="#69c102"/>
    <path id="Path_2323" data-name="Path 2323" d="M122.818,78.509a6.173,6.173,0,0,1-2.487-3,1.271,1.271,0,0,0-1.062-.8l-11.951-1.181a1.271,1.271,0,0,0-1.2.578,6.174,6.174,0,0,1-3.026,2.459,1.272,1.272,0,0,0-.814,1.067l-.126,1.279,15.486,1.482a1.271,1.271,0,0,1,1.062.8,6.174,6.174,0,0,0,2.486,3,1.272,1.272,0,0,1,.589,1.205L118.9,114.542c.123-.056.248-.109.376-.157a1.272,1.272,0,0,0,.814-1.067l3.319-33.6A1.272,1.272,0,0,0,122.818,78.509Z" transform="translate(-82.167 -64.313)" fill="#73cc00"/>
    <path id="Path_2324" data-name="Path 2324" d="M114.587,16.305,88.545,54.478a2.1,2.1,0,0,1-2.923.553L66.5,42.011a2.1,2.1,0,0,1-.554-2.919L91.984.918A2.1,2.1,0,0,1,94.907.365l19.126,13.02A2.1,2.1,0,0,1,114.587,16.305Z" transform="translate(-50.157 0)" fill="#b6fa4c"/>
    <path id="Path_2325" data-name="Path 2325" d="M258.149,13.385,239,.365a2.108,2.108,0,0,0-2.925.553l-2.23,3.265a2.106,2.106,0,0,1,.558.269l19.144,13.02a2.1,2.1,0,0,1,.554,2.919L230.27,55.3a2.108,2.108,0,0,0,2.367-.822L258.7,16.3A2.1,2.1,0,0,0,258.149,13.385Z" transform="translate(-194.274 0)" fill="#a8e83a"/>
    <path id="Path_2326" data-name="Path 2326" d="M134.4,52.629l-19.016,27.9a1.272,1.272,0,0,0-.061,1.34,6.173,6.173,0,0,1,.743,3.827,1.271,1.271,0,0,0,.548,1.212l9.924,6.763a1.27,1.27,0,0,0,1.328.067,6.174,6.174,0,0,1,3.834-.708,1.272,1.272,0,0,0,1.225-.547l19.016-27.9a1.272,1.272,0,0,0,.06-1.34,6.172,6.172,0,0,1-.743-3.827,1.271,1.271,0,0,0-.548-1.212l-9.924-6.763a1.27,1.27,0,0,0-1.328-.067,6.174,6.174,0,0,1-3.834.708A1.271,1.271,0,0,0,134.4,52.629Z" transform="translate(-93.554 -44.805)" fill="#69c102"/>
    <path id="Path_2327" data-name="Path 2327" d="M259.714,63.244a6.173,6.173,0,0,1-.743-3.827,1.271,1.271,0,0,0-.548-1.212L248.5,51.442a1.271,1.271,0,0,0-1.328-.067,6.173,6.173,0,0,1-3.834.708,1.272,1.272,0,0,0-1.225.547l-.792,1.163,12.4,8.361a1.27,1.27,0,0,1,.548,1.212,6.174,6.174,0,0,0,.743,3.827,1.272,1.272,0,0,1-.061,1.34L238.29,92.982a6.144,6.144,0,0,1,1.123.052,1.272,1.272,0,0,0,1.225-.547l19.016-27.9A1.272,1.272,0,0,0,259.714,63.244Z" transform="translate(-201.276 -44.806)" fill="#73cc00"/>
    <circle id="Ellipse_15" data-name="Ellipse 15" cx="6.81" cy="6.81" r="6.81" transform="translate(36.206 18.318)" fill="#b6fa4c"/>
    <path id="Path_2328" data-name="Path 2328" d="M63.9,242.8H11.478a3.238,3.238,0,0,1-3.237-3.239V207.51a3.238,3.238,0,0,1,3.237-3.239H63.9a3.238,3.238,0,0,1,3.237,3.239v32.054A3.238,3.238,0,0,1,63.9,242.8Z" transform="translate(0 -178.803)" fill="#f9a21b"/>
    <path id="Path_2329" data-name="Path 2329" d="M411.955,204.271h-5.893a3.239,3.239,0,0,1,3.239,3.239v32.054a3.239,3.239,0,0,1-3.239,3.239h5.893a3.239,3.239,0,0,0,3.239-3.239V207.51A3.239,3.239,0,0,0,411.955,204.271Z" transform="translate(-348.054 -178.803)" fill="#ff901d"/>
    <path id="Path_2330" data-name="Path 2330" d="M368.632,308.688H356.823a6.191,6.191,0,0,0-6.191,6.191h0a6.191,6.191,0,0,0,6.191,6.191h11.809a1.173,1.173,0,0,0,1.174-1.173V309.861A1.174,1.174,0,0,0,368.632,308.688Z" transform="translate(-299.565 -270.118)" fill="#e48f0d"/>
    <path id="Path_2331" data-name="Path 2331" d="M368.631,308.688h-5.913a1.174,1.174,0,0,1,1.173,1.174v8.453a1.252,1.252,0,0,1-1.252,1.251h-5.817a6.191,6.191,0,0,1-6.144-5.439,6.182,6.182,0,0,0,6.144,6.944h11.809A1.174,1.174,0,0,0,369.8,319.9V309.861A1.173,1.173,0,0,0,368.631,308.688Z" transform="translate(-299.564 -270.118)" fill="#e48f0d"/>
    <path id="Path_2332" data-name="Path 2332" d="M63.9,204.271H11.478a3.238,3.238,0,0,0-3.237,3.239v3.55h58.9v-3.55A3.238,3.238,0,0,0,63.9,204.271Z" transform="translate(0 -178.742)" fill="#e48f0d"/>
    <path id="Path_2333" data-name="Path 2333" d="M414.642,205.7a3.256,3.256,0,0,0-.4-.479l-.005-.005a3.252,3.252,0,0,0-.474-.391q-.065-.044-.131-.084c-.066-.04-.134-.077-.2-.113q-.067-.035-.136-.066a3.225,3.225,0,0,0-1.339-.29h-5.892a3.239,3.239,0,0,1,3.239,3.239v3.549H415.2v-3.549a3.224,3.224,0,0,0-.391-1.544Q414.73,205.828,414.642,205.7Z" transform="translate(-348.056 -178.741)" fill="#e48f0d"/>
    <path id="Path_2334" data-name="Path 2334" d="M11.478,464.573H63.9a3.238,3.238,0,0,0,3.237-3.239v-3.55H8.241v3.55A3.238,3.238,0,0,0,11.478,464.573Z" transform="translate(0 -400.573)" fill="#e48f0d"/>
    <path id="Path_2335" data-name="Path 2335" d="M61.252,457.784v3.555a.546.546,0,0,1-.55.538H11.478a3.238,3.238,0,0,1-3.237-3.239v2.7a3.238,3.238,0,0,0,3.237,3.239H63.9c.064,0,.127,0,.19-.006l.059,0,.131-.013.065-.008.128-.02.057-.01c.06-.012.12-.025.179-.04h0l.077-.022a3.239,3.239,0,0,0,.374-.131q.073-.031.143-.065t.14-.072h0q.137-.075.267-.162h0c.073-.05.144-.1.213-.158l.01-.008q.1-.085.2-.178h0q.114-.109.218-.229h0a3.258,3.258,0,0,0,.294-.4l.007-.011c.032-.052.064-.105.093-.159h0a3.223,3.223,0,0,0,.2-.452c.006-.018.012-.036.018-.054q.02-.06.038-.121l.018-.062q.017-.061.031-.124c0-.019.009-.038.013-.057.013-.06.024-.12.033-.181h0c.011-.071.019-.143.025-.216q0-.028,0-.055c0-.073.008-.147.008-.222h0v-3.549Z" transform="translate(0 -400.573)" fill="#e48f0d"/>
    <circle id="Ellipse_16" data-name="Ellipse 16" cx="2.875" cy="2.875" r="2.875" transform="translate(54.613 41.891)" fill="#f2f2f2"/>
  </g>
</svg>
