<svg xmlns="http://www.w3.org/2000/svg" width="69" height="55" viewBox="0 0 69 55">
  <g id="legal-issue" transform="translate(0 -52.745)">
    <g id="Group_7947" data-name="Group 7947" transform="translate(9.093 52.745)">
      <path id="Path_2238" data-name="Path 2238" d="M120.265,83.686,93.09,74.345l3.06-9.131,1.634.561a2.611,2.611,0,0,0,3.326-1.659,2.665,2.665,0,0,0-1.643-3.373L76.627,52.888A2.612,2.612,0,0,0,73.3,54.552a2.665,2.665,0,0,0,1.638,3.373l1.634.561L68.134,83.664l-1.629-.556a2.614,2.614,0,0,0-3.33,1.659,2.664,2.664,0,0,0,1.643,3.373l22.836,7.855a2.618,2.618,0,0,0,3.33-1.664,2.668,2.668,0,0,0-1.643-3.373L87.712,90.4l2.849-8.5,27.175,9.341a3.925,3.925,0,0,0,5-2.494A4.008,4.008,0,0,0,120.265,83.686Z" transform="translate(-63.034 -52.745)" fill="#f9a21b"/>
    </g>
    <g id="Group_7949" data-name="Group 7949" transform="translate(9.093 52.745)">
      <path id="Path_2238-2" data-name="Path 2238" d="M76.627,52.888A2.612,2.612,0,0,0,73.3,54.552a2.665,2.665,0,0,0,1.638,3.373l1.634.561L68.134,83.664l-1.629-.556a2.614,2.614,0,0,0-3.33,1.659,2.664,2.664,0,0,0,1.643,3.373c1.877.645,10.122,3.4,10.122,3.4L87.093,56.381S78.758,53.62,76.627,52.888Z" transform="translate(-63.034 -52.745)" fill="#e48f0d"/>
    </g>
    <g id="Group_7948" data-name="Group 7948" transform="translate(0 100.533)">
      <path id="Path_2239" data-name="Path 2239" d="M36.976,380.931H3.61a3.606,3.606,0,1,0,0,7.212H36.976a3.606,3.606,0,1,0,0-7.212Z" transform="translate(0 -380.931)" fill="#f9a21b"/>
    </g>
    <g id="Group_7950" data-name="Group 7950" transform="translate(0 100.533)">
      <path id="Path_2239-2" data-name="Path 2239" d="M20.323,380.931H3.61a3.606,3.606,0,1,0,0,7.212H20.323Z" transform="translate(0 -380.931)" fill="#e48f0d"/>
    </g>
  </g>
</svg>
