<svg xmlns="http://www.w3.org/2000/svg" width="43" height="60" viewBox="0 0 43 60">
  <g id="man" transform="translate(-78.906 -7.5)">
    <path id="Path_2211" data-name="Path 2211" d="M121.862,336.7c-2.819-14.079-2.6-13.608-2.979-14.526a5.37,5.37,0,0,0-3.723-3.069l-7.132-2.122h0l-1.958,5.533a.919.919,0,0,1-1.418.435l-4.421-1.619h0v0l-4.049,1.619a.919.919,0,0,1-1.419-.435l-1.958-5.533.016-.011-7.17,2.133h0l-.684.2a5.174,5.174,0,0,0-3.364,3.946L78.951,336.7c-.134.956-.148,3.241,2.791,3.241h37.329C122.011,339.936,122,337.651,121.862,336.7Z" transform="translate(0 -272.436)" fill="#f9a21b"/>
    <path id="Path_2212" data-name="Path 2212" d="M82.014,349.81c2.838-14.775,2.415-15.062,3.482-16.631a5.029,5.029,0,0,1,1.241-1.267l-1.026.3h0l-.69.2a5.188,5.188,0,0,0-3.393,3.946L78.951,349.81c-.135.956-.15,3.241,2.815,3.241h3.063C81.864,353.051,81.878,350.766,82.014,349.81Z" transform="translate(0 -285.551)" fill="#e48f0d"/>
    <path id="Path_2213" data-name="Path 2213" d="M259.452,300.836l-4.926,6.335,4.459,1.619a.931.931,0,0,0,1.431-.435l1.974-5.533Z" transform="translate(-154.336 -258.003)" fill="#dadada"/>
    <path id="Path_2214" data-name="Path 2214" d="M261.224,302.034l-1.771-1.2-4.926,6.335,2.571.934Z" transform="translate(-154.328 -257.993)" fill="#ceccca"/>
    <path id="Path_2215" data-name="Path 2215" d="M196.313,300.836l4.552,6.335-4.085,1.619a.93.93,0,0,1-1.431-.435l-1.974-5.533Z" transform="translate(-100.594 -258.003)" fill="#dadada"/>
    <path id="Path_2216" data-name="Path 2216" d="M208.124,308.142l2.448-.971-4.552-6.335-1.583,1.07Z" transform="translate(-110.31 -257.994)" fill="#ceccca"/>
    <path id="Path_2217" data-name="Path 2217" d="M156.362,7.561a13.955,13.955,0,0,0-15.1,14.009V25.4h27.755V21.569A13.992,13.992,0,0,0,156.362,7.561Z" transform="translate(-54.717 -0.005)" fill="#4c4846"/>
    <path id="Path_2218" data-name="Path 2218" d="M144.314,18.918A14.072,14.072,0,0,1,156.726,7.571,14.068,14.068,0,0,0,141.26,21.564V25.4h2.8C144.075,21.606,143.983,20.66,144.314,18.918Z" transform="translate(-54.819)" fill="#3f3b39"/>
    <g id="Group_7942" data-name="Group 7942" transform="translate(85.779 23.498)">
      <path id="Path_2219" data-name="Path 2219" d="M350.522,143.158a3.257,3.257,0,0,1-3.5,2.935v-5.869A3.257,3.257,0,0,1,350.522,143.158Z" transform="translate(-321.24 -140.224)" fill="#dd9a5e"/>
      <path id="Path_2220" data-name="Path 2220" d="M136.546,143.158a3.258,3.258,0,0,0,3.5,2.935v-5.869A3.257,3.257,0,0,0,136.546,143.158Z" transform="translate(-136.546 -140.224)" fill="#dd9a5e"/>
    </g>
    <g id="Group_7943" data-name="Group 7943" transform="translate(85.777 25.128)">
      <path id="Path_2221" data-name="Path 2221" d="M347.018,155.327V157.9c2.613,0,4.274-2.3,3.15-4.221A3.615,3.615,0,0,1,347.018,155.327Z" transform="translate(-321.237 -153.679)" fill="#d38d54"/>
      <path id="Path_2222" data-name="Path 2222" d="M136.88,153.679c-1.126,1.931.546,4.221,3.15,4.221v-2.573A3.615,3.615,0,0,1,136.88,153.679Z" transform="translate(-136.523 -153.679)" fill="#d38d54"/>
    </g>
    <path id="Path_2223" data-name="Path 2223" d="M221.76,285.991l4.926-6.335h0V276.7l-.033.015h0V276.7a11.188,11.188,0,0,1-9.428,0v.015h0l-.033-.015v2.97l.021-.014,4.552,6.335Z" transform="translate(-121.53 -236.786)" fill="#dd9a5e"/>
    <path id="Path_2224" data-name="Path 2224" d="M220.251,277.612a11.206,11.206,0,0,1-3.027-.912v.015h0l-.033-.015v2.97l.021-.014,3.042,4.233v-6.277Z" transform="translate(-121.502 -236.765)" fill="#d38d54"/>
    <path id="Path_2225" data-name="Path 2225" d="M183.743,95.251a1.587,1.587,0,0,0-1.906-1.52,42.148,42.148,0,0,1-13.305-.012,1.589,1.589,0,0,0-1.83,1.6,4.645,4.645,0,0,1-1.7,3.621,3.407,3.407,0,0,1-.854.507c0,7.4-.007,6.949.016,7.4.646,13.062,19.686,14.771,21.968,1.363.212-1.241.163-1.358.163-8.76A4.411,4.411,0,0,1,183.743,95.251Z" transform="translate(-74.803 -75.89)" fill="#edae6b"/>
    <path id="Path_2226" data-name="Path 2226" d="M167.224,107.326c-.021-.522,0-.819-.011-6.522a1.766,1.766,0,0,1,.545-1.4,4.312,4.312,0,0,0,1.152-1.124c1.448-2.056.341-3.429,1.622-4.3-.594-.066-1.254-.152-1.927-.257a1.607,1.607,0,0,0-1.86,1.6,4.8,4.8,0,0,1-1.119,3.048,4.269,4.269,0,0,1-.607.573,3.478,3.478,0,0,1-.868.507c0,7.495-.007,6.957.016,7.4a11.251,11.251,0,0,0,9.368,10.526A11.772,11.772,0,0,1,167.224,107.326Z" transform="translate(-74.917 -75.887)" fill="#dd9a5e"/>
  </g>
</svg>
