<svg xmlns="http://www.w3.org/2000/svg" width="45" height="50" viewBox="0 0 45 50">
  <g id="التنبيهات" transform="translate(-0.5 0)">
    <path id="Path_2227" data-name="Path 2227" d="M174.148,400.389a7.48,7.48,0,1,1-14.96,0l7.492-3.85Zm0,0" transform="translate(-143.668 -357.87)" fill="#f9a21b"/>
    <path id="Path_2228" data-name="Path 2228" d="M222.84,459.285a7.5,7.5,0,0,1-5.118,4.9,7.486,7.486,0,0,1-3.815-2.5,1.479,1.479,0,0,1,1.162-2.4Zm0,0" transform="translate(-192.797 -414.458)" fill="#f7d360"/>
    <path id="Path_2229" data-name="Path 2229" d="M76.126,70.743,60.515,74.265l-21.91-3.522a3.233,3.233,0,0,0,3.243-2.494c2.67-7.511-4.44-29.4,15.518-29.4s12.847,21.89,15.517,29.4a3.235,3.235,0,0,0,3.243,2.494Zm0,0" transform="translate(-34.366 -35.036)" fill="#f7d360"/>
    <path id="Path_2230" data-name="Path 2230" d="M45.5,363.3a3.7,3.7,0,0,1-3.65,3.74H4.15a3.594,3.594,0,0,1-2.581-1.1A3.773,3.773,0,0,1,.5,363.3a3.7,3.7,0,0,1,3.65-3.74h37.7a3.6,3.6,0,0,1,2.581,1.1A3.774,3.774,0,0,1,45.5,363.3Zm0,0" transform="translate(0 -324.519)" fill="#f9a21b"/>
    <path id="Path_2231" data-name="Path 2231" d="M72.89,68.161h-19.5a3.8,3.8,0,0,1-3.718-3.995c.275-9.244-1.143-25.133,7.557-25.307-23.883.129-8.616,31.788-18.614,31.788h37.52a3.233,3.233,0,0,1-3.243-2.486Zm0,0" transform="translate(-34.373 -35.046)" fill="#f9a21b"/>
    <path id="Path_2232" data-name="Path 2232" d="M145.92,363.3a3.74,3.74,0,0,1-3.74,3.74h-27.82a3.74,3.74,0,1,1,0-7.479h27.82a3.739,3.739,0,0,1,3.74,3.74Zm0,0" transform="translate(-100.42 -324.519)" fill="#f7d360"/>
    <path id="Path_2233" data-name="Path 2233" d="M204.18,4.1c.008-.094.011-.19.011-.286a3.812,3.812,0,0,0-7.625,0c0,.1,0,.192.011.286" transform="translate(-177.378)" fill="#f9a21b"/>
    <g id="Group_7946" data-name="Group 7946" transform="translate(0.832 2.616)">
      <path id="Path_2234" data-name="Path 2234" d="M363.849,40.507a.769.769,0,0,1-.769-.769,14.794,14.794,0,0,0-2.719-9.029,10,10,0,0,0-2.73-2.6.769.769,0,0,1,.746-1.345,11.238,11.238,0,0,1,3.165,2.96,16.319,16.319,0,0,1,3.077,10.018.77.77,0,0,1-.769.769Zm0,0" transform="translate(-323.666 -26.664)" fill="#e6e6e6"/>
      <path id="Path_2235" data-name="Path 2235" d="M420.951,38.925a.769.769,0,0,1-.769-.769c0-4.909-2.907-6.861-3.031-6.941a.769.769,0,0,1,.829-1.3c.153.1,3.74,2.447,3.74,8.237A.769.769,0,0,1,420.951,38.925Zm0,0" transform="translate(-377.385 -29.492)" fill="#e6e6e6"/>
      <path id="Path_2236" data-name="Path 2236" d="M39.136,40.5a.769.769,0,0,1-.769-.769,16.322,16.322,0,0,1,3.077-10.018,11.238,11.238,0,0,1,3.165-2.96.769.769,0,0,1,.746,1.345,10.006,10.006,0,0,0-2.73,2.6,14.791,14.791,0,0,0-2.719,9.029.77.77,0,0,1-.769.769Zm0,0" transform="translate(-34.983 -26.662)" fill="#e6e6e6"/>
      <path id="Path_2237" data-name="Path 2237" d="M4.656,38.923a.769.769,0,0,1-.769-.769c0-5.79,3.587-8.14,3.74-8.237a.769.769,0,0,1,.829,1.3c-.128.084-3.031,2.036-3.031,6.941a.769.769,0,0,1-.769.769Zm0,0" transform="translate(-3.887 -29.489)" fill="#e6e6e6"/>
    </g>
  </g>
</svg>
