<svg xmlns="http://www.w3.org/2000/svg" width="63" height="60" viewBox="0 0 63 60">
  <g id="الصلاحيات" transform="translate(-878 -138)">
    <g id="man" transform="translate(799.094 130.5)">
      <path id="Path_2211" data-name="Path 2211" d="M109.874,330.792c-2.033-9.866-1.872-9.536-2.148-10.179a3.863,3.863,0,0,0-2.684-2.151L99.9,316.975h0l-1.411,3.877a.671.671,0,0,1-1.023.3l-3.187-1.135h0v0l-2.919,1.135a.671.671,0,0,1-1.023-.3l-1.411-3.877.012-.008-5.169,1.495h0l-.493.143a3.658,3.658,0,0,0-2.425,2.765l-1.914,9.422a1.807,1.807,0,0,0,2.012,2.271h26.912A1.807,1.807,0,0,0,109.874,330.792Z" transform="translate(0 -283.563)" fill="#f9a21b"/>
      <path id="Path_2212" data-name="Path 2212" d="M81.17,344.4c2.068-10.311,1.759-10.511,2.537-11.606a3.587,3.587,0,0,1,.9-.884l-.747.211h0l-.5.142a3.672,3.672,0,0,0-2.472,2.754L78.939,344.4c-.1.667-.109,2.262,2.051,2.262h2.231C81.061,346.664,81.072,345.07,81.17,344.4Z" transform="translate(0 -297.164)" fill="#e48f0d"/>
      <path id="Path_2213" data-name="Path 2213" d="M258.115,300.836l-3.589,4.616,3.249,1.18a.678.678,0,0,0,1.042-.317l1.439-4.031Z" transform="translate(-160.312 -268.761)" fill="#dadada"/>
      <path id="Path_2214" data-name="Path 2214" d="M259.406,301.709l-1.291-.873-3.589,4.616,1.873.68Z" transform="translate(-160.3 -268.735)" fill="#ceccca"/>
      <path id="Path_2215" data-name="Path 2215" d="M195.515,300.836l3.317,4.616-2.976,1.18a.678.678,0,0,1-1.042-.317l-1.439-4.031Z" transform="translate(-104.489 -268.761)" fill="#dadada"/>
      <path id="Path_2216" data-name="Path 2216" d="M207.123,306.159l1.784-.707-3.317-4.616-1.153.78Z" transform="translate(-114.577 -268.737)" fill="#ceccca"/>
      <path id="Path_2217" data-name="Path 2217" d="M152.084,7.546a10.071,10.071,0,0,0-10.823,10.207v2.794h19.893V17.753A10.133,10.133,0,0,0,152.084,7.546Z" transform="translate(-56.79 -0.005)" fill="#4c4846"/>
      <path id="Path_2218" data-name="Path 2218" d="M143.485,15.819a10.253,10.253,0,0,1,9.043-8.268,10.25,10.25,0,0,0-11.269,10.2v2.794H143.3A24.2,24.2,0,0,1,143.485,15.819Z" transform="translate(-56.954 0)" fill="#3f3b39"/>
      <g id="Group_7942" data-name="Group 7942" transform="translate(83.749 18.649)">
        <path id="Path_2219" data-name="Path 2219" d="M349.571,142.362a2.373,2.373,0,0,1-2.553,2.138v-4.276A2.373,2.373,0,0,1,349.571,142.362Z" transform="translate(-328.236 -140.224)" fill="#dd9a5e"/>
        <path id="Path_2220" data-name="Path 2220" d="M136.546,142.362A2.373,2.373,0,0,0,139.1,144.5v-4.276A2.373,2.373,0,0,0,136.546,142.362Z" transform="translate(-136.546 -140.224)" fill="#dd9a5e"/>
      </g>
      <g id="Group_7943" data-name="Group 7943" transform="translate(83.747 19.801)">
        <path id="Path_2221" data-name="Path 2221" d="M347.018,154.88v1.874c1.9,0,3.114-1.672,2.3-3.075A2.634,2.634,0,0,1,347.018,154.88Z" transform="translate(-328.234 -153.679)" fill="#d38d54"/>
        <path id="Path_2222" data-name="Path 2222" d="M136.783,153.679c-.821,1.407.4,3.075,2.3,3.075V154.88A2.634,2.634,0,0,1,136.783,153.679Z" transform="translate(-136.523 -153.679)" fill="#d38d54"/>
      </g>
      <path id="Path_2223" data-name="Path 2223" d="M220.519,283.47l3.589-4.616h0V276.7l-.024.011h0V276.7a8.151,8.151,0,0,1-6.87,0v.011h0l-.024-.011v2.164l.015-.01,3.317,4.616Z" transform="translate(-126.241 -246.68)" fill="#dd9a5e"/>
      <path id="Path_2224" data-name="Path 2224" d="M219.419,277.365a8.166,8.166,0,0,1-2.206-.665v.011h0l-.024-.011v2.164l.015-.01,2.216,3.084v-4.574Z" transform="translate(-126.194 -246.621)" fill="#d38d54"/>
      <path id="Path_2225" data-name="Path 2225" d="M178.522,94.846a1.166,1.166,0,0,0-1.4-1.123,30.694,30.694,0,0,1-9.759-.009,1.168,1.168,0,0,0-1.342,1.184,3.442,3.442,0,0,1-1.245,2.675,2.494,2.494,0,0,1-.626.375c0,5.465,0,5.134.011,5.465.474,9.652,14.439,10.914,16.114,1.007.155-.917.12-1,.12-6.472A3.257,3.257,0,0,1,178.522,94.846Z" transform="translate(-77.821 -79.174)" fill="#edae6b"/>
      <path id="Path_2226" data-name="Path 2226" d="M166.389,103.627c-.015-.38,0-.6-.008-4.752a1.286,1.286,0,0,1,.4-1.022,3.142,3.142,0,0,0,.84-.819c1.055-1.5.248-2.5,1.182-3.136-.433-.048-.914-.111-1.4-.187a1.171,1.171,0,0,0-1.355,1.167,3.5,3.5,0,0,1-.815,2.221,3.11,3.11,0,0,1-.442.417,2.534,2.534,0,0,1-.633.37c0,5.461,0,5.069.012,5.389a8.2,8.2,0,0,0,6.825,7.669A8.577,8.577,0,0,1,166.389,103.627Z" transform="translate(-77.821 -79.172)" fill="#dd9a5e"/>
    </g>
    <g id="man-2" data-name="man" transform="translate(819.094 130.5)">
      <path id="Path_2211-2" data-name="Path 2211" d="M121.862,336.7c-2.819-14.079-2.6-13.608-2.979-14.526a5.37,5.37,0,0,0-3.723-3.069l-7.132-2.122h0l-1.958,5.533a.919.919,0,0,1-1.418.435l-4.421-1.619h0v0l-4.049,1.619a.919.919,0,0,1-1.419-.435l-1.958-5.533.016-.011-7.17,2.133h0l-.684.2a5.174,5.174,0,0,0-3.364,3.946L78.951,336.7c-.134.956-.148,3.241,2.791,3.241h37.329C122.011,339.936,122,337.651,121.862,336.7Z" transform="translate(0 -272.436)" fill="#f9a21b"/>
      <path id="Path_2212-2" data-name="Path 2212" d="M82.014,349.81c2.838-14.775,2.415-15.062,3.482-16.631a5.029,5.029,0,0,1,1.241-1.267l-1.026.3h0l-.69.2a5.188,5.188,0,0,0-3.393,3.946L78.951,349.81c-.135.956-.15,3.241,2.815,3.241h3.063C81.864,353.051,81.878,350.766,82.014,349.81Z" transform="translate(0 -285.551)" fill="#e48f0d"/>
      <path id="Path_2213-2" data-name="Path 2213" d="M259.452,300.836l-4.926,6.335,4.459,1.619a.931.931,0,0,0,1.431-.435l1.974-5.533Z" transform="translate(-154.336 -258.003)" fill="#dadada"/>
      <path id="Path_2214-2" data-name="Path 2214" d="M261.224,302.034l-1.771-1.2-4.926,6.335,2.571.934Z" transform="translate(-154.328 -257.993)" fill="#ceccca"/>
      <path id="Path_2215-2" data-name="Path 2215" d="M196.313,300.836l4.552,6.335-4.085,1.619a.93.93,0,0,1-1.431-.435l-1.974-5.533Z" transform="translate(-100.594 -258.003)" fill="#dadada"/>
      <path id="Path_2216-2" data-name="Path 2216" d="M208.124,308.142l2.448-.971-4.552-6.335-1.583,1.07Z" transform="translate(-110.31 -257.994)" fill="#ceccca"/>
      <path id="Path_2217-2" data-name="Path 2217" d="M156.362,7.561a13.955,13.955,0,0,0-15.1,14.009V25.4h27.755V21.569A13.992,13.992,0,0,0,156.362,7.561Z" transform="translate(-54.717 -0.005)" fill="#4c4846"/>
      <path id="Path_2218-2" data-name="Path 2218" d="M144.314,18.918A14.072,14.072,0,0,1,156.726,7.571,14.068,14.068,0,0,0,141.26,21.564V25.4h2.8C144.075,21.606,143.983,20.66,144.314,18.918Z" transform="translate(-54.819)" fill="#3f3b39"/>
      <g id="Group_7942-2" data-name="Group 7942" transform="translate(85.779 23.498)">
        <path id="Path_2219-2" data-name="Path 2219" d="M350.522,143.158a3.257,3.257,0,0,1-3.5,2.935v-5.869A3.257,3.257,0,0,1,350.522,143.158Z" transform="translate(-321.24 -140.224)" fill="#dd9a5e"/>
        <path id="Path_2220-2" data-name="Path 2220" d="M136.546,143.158a3.258,3.258,0,0,0,3.5,2.935v-5.869A3.257,3.257,0,0,0,136.546,143.158Z" transform="translate(-136.546 -140.224)" fill="#dd9a5e"/>
      </g>
      <g id="Group_7943-2" data-name="Group 7943" transform="translate(85.777 25.128)">
        <path id="Path_2221-2" data-name="Path 2221" d="M347.018,155.327V157.9c2.613,0,4.274-2.3,3.15-4.221A3.615,3.615,0,0,1,347.018,155.327Z" transform="translate(-321.237 -153.679)" fill="#d38d54"/>
        <path id="Path_2222-2" data-name="Path 2222" d="M136.88,153.679c-1.126,1.931.546,4.221,3.15,4.221v-2.573A3.615,3.615,0,0,1,136.88,153.679Z" transform="translate(-136.523 -153.679)" fill="#d38d54"/>
      </g>
      <path id="Path_2223-2" data-name="Path 2223" d="M221.76,285.991l4.926-6.335h0V276.7l-.033.015h0V276.7a11.188,11.188,0,0,1-9.428,0v.015h0l-.033-.015v2.97l.021-.014,4.552,6.335Z" transform="translate(-121.53 -236.786)" fill="#dd9a5e"/>
      <path id="Path_2224-2" data-name="Path 2224" d="M220.251,277.612a11.206,11.206,0,0,1-3.027-.912v.015h0l-.033-.015v2.97l.021-.014,3.042,4.233v-6.277Z" transform="translate(-121.502 -236.765)" fill="#d38d54"/>
      <path id="Path_2225-2" data-name="Path 2225" d="M183.743,95.251a1.587,1.587,0,0,0-1.906-1.52,42.148,42.148,0,0,1-13.305-.012,1.589,1.589,0,0,0-1.83,1.6,4.645,4.645,0,0,1-1.7,3.621,3.407,3.407,0,0,1-.854.507c0,7.4-.007,6.949.016,7.4.646,13.062,19.686,14.771,21.968,1.363.212-1.241.163-1.358.163-8.76A4.411,4.411,0,0,1,183.743,95.251Z" transform="translate(-74.803 -75.89)" fill="#edae6b"/>
      <path id="Path_2226-2" data-name="Path 2226" d="M167.224,107.326c-.021-.522,0-.819-.011-6.522a1.766,1.766,0,0,1,.545-1.4,4.312,4.312,0,0,0,1.152-1.124c1.448-2.056.341-3.429,1.622-4.3-.594-.066-1.254-.152-1.927-.257a1.607,1.607,0,0,0-1.86,1.6,4.8,4.8,0,0,1-1.119,3.048,4.269,4.269,0,0,1-.607.573,3.478,3.478,0,0,1-.868.507c0,7.495-.007,6.957.016,7.4a11.251,11.251,0,0,0,9.368,10.526A11.772,11.772,0,0,1,167.224,107.326Z" transform="translate(-74.917 -75.887)" fill="#dd9a5e"/>
    </g>
    <g id="share" transform="translate(855.911 198) rotate(-90)">
      <path id="Path_2240" data-name="Path 2240" d="M28.041,35.3,16.387,22.522v7.624H13.91A13.91,13.91,0,0,0,0,44.056V48.1L1.1,46.89a19.747,19.747,0,0,1,14.586-6.435h.7v7.624Z" fill="#fff"/>
    </g>
    <path id="Path_2240-2" data-name="Path 2240" d="M20.336,31.789l-8.451-9.267v5.529H8.138c-4.34,0-9.109,2.728-10.634,6.861a9.627,9.627,0,0,0-.523,3.214v2.93l.8-.874a15.581,15.581,0,0,1,1.4-1.338c2.355-2.061,6.766-3.316,10.248-3.316h2.459v5.529Z" transform="translate(858.911 194.295) rotate(-90)"/>
  </g>
</svg>
