<svg xmlns="http://www.w3.org/2000/svg" width="60" height="60" viewBox="0 0 60 60">
  <g id="project-management" transform="translate(0 -0.054)">
    <path id="Path_2380" data-name="Path 2380" d="M194.1,398.535a3.111,3.111,0,0,0,3.111,3.111h4.148a3.111,3.111,0,0,0,3.111-3.111v-6.222H194.1Zm0,0" transform="translate(-169.155 -341.592)" fill="#ebebeb"/>
    <path id="Path_2381" data-name="Path 2381" d="M20.273,200.029a18.722,18.722,0,0,1-2.555-1.978,5.176,5.176,0,1,1-5-6.48c.158,0,.311.033.462.047a18.653,18.653,0,0,1-1.489-7.305h-1.32l-.716,3.408a1.037,1.037,0,0,1-1.6.641l-2.865-1.975L2.074,189.5l1.97,2.865a1.037,1.037,0,0,1-.64,1.6l-3.4.717v4.148l3.408.716a1.036,1.036,0,0,1,.641,1.6l-1.974,2.865,3.111,3.111,2.865-1.971a1.037,1.037,0,0,1,1.6.641l.715,3.4h4.148l.715-3.409a1.037,1.037,0,0,1,1.6-.641l2.865,1.976,3.255-3.255a6.039,6.039,0,0,0-2.684-3.841Zm0,0" transform="translate(0 -160.495)" fill="#c9dfff"/>
    <path id="Path_2382" data-name="Path 2382" d="M127,58.907A18.481,18.481,0,1,0,98.589,74.564a5.933,5.933,0,0,1,2.781,4.961V83.7a3.088,3.088,0,0,0,3.076,3.1h8.2a3.088,3.088,0,0,0,3.076-3.1V79.611a6.1,6.1,0,0,1,2.84-5.085A18.613,18.613,0,0,0,127,58.907Zm0,0" transform="translate(-78.411 -35.041)" fill="#ffb41f"/>
    <path id="Path_2383" data-name="Path 2383" d="M234.631,20.155l3.26-2.445-3.733-4.978-3.26,2.445a2.074,2.074,0,0,1-3.3-1.952l.576-4.033-6.159-.88-.576,4.032a2.074,2.074,0,0,1-3.712.952l-2.445-3.26-4.977,3.733,2.444,3.26a2.074,2.074,0,0,1-1.952,3.3l-4.033-.576-.881,6.159,4.034.576a2.074,2.074,0,0,1,.951,3.712l-3.259,2.445,3.733,4.977,3.259-2.444a2.074,2.074,0,0,1,3.3,1.952l-.581,4.032,6.159.881.581-4.034a2.074,2.074,0,0,1,3.712-.951l2.446,3.259,4.977-3.733-2.446-3.259a2.074,2.074,0,0,1,1.952-3.3l4.033.576.88-6.159-4.033-.576a2.074,2.074,0,0,1-.952-3.711ZM222.751,32.435a7.259,7.259,0,1,1,7.259-7.259A7.258,7.258,0,0,1,222.751,32.435Zm0,0" transform="translate(-179.616 -7.188)" fill="#1cc8eb"/>
    <path id="Path_2384" data-name="Path 2384" d="M194.1,416.313h10.37v2.074H194.1Zm0,0" transform="translate(-169.155 -362.481)" fill="#9e9e9e"/>
    <g id="Group_7973" data-name="Group 7973" transform="translate(0.242 0.054)">
      <path id="Path_2385" data-name="Path 2385" d="M226.105,352.313h2.074v3.111h-2.074Zm0,0" transform="translate(-197.259 -306.83)" fill="#f9a21b"/>
      <path id="Path_2386" data-name="Path 2386" d="M137.644,121.53H135.57a6.622,6.622,0,0,0-4.252-6.181,14.517,14.517,0,0,1-2.449-25.805l1.1,1.754a12.444,12.444,0,0,0,2.1,22.121,8.677,8.677,0,0,1,5.577,8.11Zm0,0" transform="translate(-106.66 -78.038)" fill="#f9a21b"/>
      <path id="Path_2387" data-name="Path 2387" d="M387.142,296.313h5.185a1.037,1.037,0,1,1,0,2.074h-5.185a1.037,1.037,0,0,1,0-2.074Zm0,0" transform="translate(-336.716 -258.043)" fill="#f9a21b"/>
      <path id="Path_2388" data-name="Path 2388" d="M376.491,341.809a1.037,1.037,0,0,1,1.46-.133l4.629,3.857a1.037,1.037,0,1,1-1.328,1.593l-4.629-3.857A1.037,1.037,0,0,1,376.491,341.809Zm0,0" transform="translate(-328.139 -297.363)" fill="#f9a21b"/>
      <path id="Path_2389" data-name="Path 2389" d="M339.142,360.313a1.037,1.037,0,0,1,1.037,1.037v5.185a1.037,1.037,0,1,1-2.074,0V361.35A1.037,1.037,0,0,1,339.142,360.313Zm0,0" transform="translate(-294.852 -313.793)" fill="#f9a21b"/>
      <path id="Path_2390" data-name="Path 2390" d="M2.651,123.853l6.283-1.57a1.036,1.036,0,1,1,.5,2.011l-6.283,1.57a1.036,1.036,0,1,1-.5-2.011Zm0,0" transform="translate(-1.865 -106.469)" fill="#f9a21b"/>
      <path id="Path_2391" data-name="Path 2391" d="M16.805,45.4a1.037,1.037,0,0,1,1.446-.241l5.571,3.979a1.036,1.036,0,1,1-1.2,1.687L17.047,46.85A1.036,1.036,0,0,1,16.805,45.4Zm0,0" transform="translate(-14.701 -39.148)" fill="#f9a21b"/>
      <path id="Path_2392" data-name="Path 2392" d="M84.51.086a1.037,1.037,0,0,1,1.261.748L87.378,7.12a1.037,1.037,0,1,1-2.009.514L83.762,1.348A1.037,1.037,0,0,1,84.51.086Zm0,0" transform="translate(-73.201 -0.054)" fill="#f9a21b"/>
    </g>
  </g>
</svg>
