<svg xmlns="http://www.w3.org/2000/svg" width="51" height="64" viewBox="0 0 51 64">
  <g id="التقارير" transform="translate(-0.019)">
    <path id="Path_2365" data-name="Path 2365" d="M4.454,48.039h42.13a4.425,4.425,0,0,1,4.435,4.415v48.57a4.425,4.425,0,0,1-4.435,4.415H4.454A4.425,4.425,0,0,1,.02,101.024V52.455A4.425,4.425,0,0,1,4.454,48.039Zm0,0" transform="translate(0 -41.439)" fill="#f9a21b"/>
    <path id="Path_2366" data-name="Path 2366" d="M126,4.4v8.792H104.02V4.4h5.605a5.5,5.5,0,0,1,10.77,0Zm0,0" transform="translate(-89.491)" fill="#e48f0d"/>
    <path id="Path_2367" data-name="Path 2367" d="M64.231,80.039v2.2H42.017v-2.2h-10V128.4H65.342V121.8a2.21,2.21,0,0,1,2.221-2.2h6.664V80.039Zm0,0" transform="translate(-27.604 -68.793)" fill="#e0e0e2"/>
    <path id="Path_2368" data-name="Path 2368" d="M272.02,370.237v6.594l8.792-8.792h-6.594A2.2,2.2,0,0,0,272.02,370.237Zm0,0" transform="translate(-234.189 -317.228)" fill="#c6c5ca"/>
    <path id="Path_2369" data-name="Path 2369" d="M170.218,28.435a2.2,2.2,0,1,1,2.2-2.2A2.2,2.2,0,0,1,170.218,28.435Zm0-2.2" transform="translate(-144.699 -20.737)" fill="#f1f2f2"/>
    <g id="Group_7971" data-name="Group 7971" transform="translate(10.133 22.143)">
      <path id="Path_2370" data-name="Path 2370" d="M74.218,162.237h-1.1a1.1,1.1,0,0,1,0-2.2h1.1a1.1,1.1,0,0,1,0,2.2Zm0,0" transform="translate(-72.02 -160.039)" fill="#acabb1"/>
      <path id="Path_2371" data-name="Path 2371" d="M136.2,162.237h-23.08a1.1,1.1,0,1,1,0-2.2H136.2a1.1,1.1,0,1,1,0,2.2Zm0,0" transform="translate(-106.525 -160.039)" fill="#acabb1"/>
      <path id="Path_2372" data-name="Path 2372" d="M74.218,210.237h-1.1a1.1,1.1,0,1,1,0-2.2h1.1a1.1,1.1,0,1,1,0,2.2Zm0,0" transform="translate(-72.02 -201.445)" fill="#acabb1"/>
      <path id="Path_2373" data-name="Path 2373" d="M136.2,210.237h-23.08a1.1,1.1,0,1,1,0-2.2H136.2a1.1,1.1,0,1,1,0,2.2Zm0,0" transform="translate(-106.525 -201.445)" fill="#acabb1"/>
      <path id="Path_2374" data-name="Path 2374" d="M74.218,258.237h-1.1a1.1,1.1,0,0,1,0-2.2h1.1a1.1,1.1,0,1,1,0,2.2Zm0,0" transform="translate(-72.02 -242.85)" fill="#acabb1"/>
      <path id="Path_2375" data-name="Path 2375" d="M136.2,258.237h-23.08a1.1,1.1,0,1,1,0-2.2H136.2a1.1,1.1,0,1,1,0,2.2Zm0,0" transform="translate(-106.525 -242.85)" fill="#acabb1"/>
      <path id="Path_2376" data-name="Path 2376" d="M74.218,306.237h-1.1a1.1,1.1,0,0,1,0-2.2h1.1a1.1,1.1,0,1,1,0,2.2Zm0,0" transform="translate(-72.02 -284.256)" fill="#acabb1"/>
      <path id="Path_2377" data-name="Path 2377" d="M136.2,306.237h-23.08a1.1,1.1,0,1,1,0-2.2H136.2a1.1,1.1,0,1,1,0,2.2Zm0,0" transform="translate(-106.525 -284.256)" fill="#acabb1"/>
      <path id="Path_2378" data-name="Path 2378" d="M74.218,354.237h-1.1a1.1,1.1,0,0,1,0-2.2h1.1a1.1,1.1,0,1,1,0,2.2Zm0,0" transform="translate(-72.02 -325.662)" fill="#acabb1"/>
      <path id="Path_2379" data-name="Path 2379" d="M130.7,354.237H113.119a1.1,1.1,0,1,1,0-2.2H130.7a1.1,1.1,0,1,1,0,2.2Zm0,0" transform="translate(-106.525 -325.662)" fill="#acabb1"/>
    </g>
  </g>
</svg>
