<svg xmlns="http://www.w3.org/2000/svg" width="55" height="55" viewBox="0 0 55 55">
  <g id="الاعدادات" transform="translate(-892 -141)">
    <path id="settings" d="M55,33.264V21.736l-4.7-1.883a24.18,24.18,0,0,0-1.269-3.065l2-4.656L42.87,3.975l-4.659,2a23.809,23.809,0,0,0-3.063-1.269L33.266,0H21.735L19.853,4.706A23.816,23.816,0,0,0,16.79,5.975l-4.659-2L3.978,12.132l2,4.656A24.186,24.186,0,0,0,4.7,19.853L0,21.736V33.264l4.7,1.883a24.18,24.18,0,0,0,1.269,3.065l-2,4.656,8.152,8.157,4.659-2a23.808,23.808,0,0,0,3.063,1.269L21.735,55H33.266l1.882-4.706a23.815,23.815,0,0,0,3.063-1.269l4.659,2,8.152-8.157-2-4.656A24.186,24.186,0,0,0,50.3,35.147ZM27.5,41.25A13.75,13.75,0,1,1,41.25,27.5,13.765,13.765,0,0,1,27.5,41.25Z" transform="translate(892 141)" fill="#f9a21b"/>
    <path id="settings-2" data-name="settings" d="M55,33.264V21.736l-4.7-1.883a24.18,24.18,0,0,0-1.269-3.065l2-4.656L42.87,3.975l-4.659,2a23.809,23.809,0,0,0-3.063-1.269L33.266,0H27.5V55s3.852-.669,5.766,0l1.882-4.706a23.815,23.815,0,0,0,3.063-1.269l4.659,2,8.152-8.157-2-4.656A24.186,24.186,0,0,0,50.3,35.147ZM27.5,41.25V13.75s.514.007,1.071.041A13.7,13.7,0,0,1,41.25,27.5,13.837,13.837,0,0,1,28.576,41.208C28.42,41.227,27.5,41.25,27.5,41.25Z" transform="translate(892 141)" fill="#e48f0d"/>
  </g>
</svg>
