<svg xmlns="http://www.w3.org/2000/svg" width="60" height="66" viewBox="0 0 60 66">
  <g id="الموظفين" transform="translate(-24.707 0)">
    <path id="Path_2195" data-name="Path 2195" d="M62.323,253.179l-6.1-2.4H34.556l-6.1,2.4a5.908,5.908,0,0,0-3.741,5.735l.741,18.5a1.969,1.969,0,0,0,1.968,1.891H63.355a1.969,1.969,0,0,0,1.968-1.891l.741-18.5A5.908,5.908,0,0,0,62.323,253.179Z" transform="translate(0 -218.66)" fill="#c9c6ca"/>
    <path id="Path_2196" data-name="Path 2196" d="M164.611,303.684l-1.26,21.664h5.4l-1.26-21.664Z" transform="translate(-120.661 -264.704)" fill="#f9a21b"/>
    <path id="Path_2197" data-name="Path 2197" d="M171.835,284.847h-1.8a1.071,1.071,0,0,1-1.071-1.071v-2.868h3.939v2.868A1.071,1.071,0,0,1,171.835,284.847Z" transform="translate(-125.549 -244.711)" fill="#e48f0d"/>
    <rect id="Rectangle_5933" data-name="Rectangle 5933" width="13.786" height="11.817" transform="translate(38.495 24.434)" fill="#e6af78"/>
    <path id="Path_2199" data-name="Path 2199" d="M104.863.031a12.738,12.738,0,0,0-7.714,2.954s-4.1,0-4.1,4.924a36.789,36.789,0,0,0,.985,7.847H116.68C118.649,4.924,113.972-.461,104.863.031Z" transform="translate(-59.475 0)" fill="#6e4b53"/>
    <path id="Path_2200" data-name="Path 2200" d="M98.953,31.722c-3.618-4.523-1.805-8.707-1.805-8.707s-4.1,0-4.1,4.924a36.789,36.789,0,0,0,.985,7.847h4.924V31.722Z" transform="translate(-59.474 -20.03)" fill="#5c414b"/>
    <path id="Path_2201" data-name="Path 2201" d="M109.087,86.879H108.1l-1.3-2.368a.991.991,0,0,0-1.051-.489c-6.485,1.186-10.748-.321-12.363-1.076a.969.969,0,0,0-1.2.312,20.8,20.8,0,0,1-2.756,3.1,1.973,1.973,0,0,1-1.339.525h-.71a1.925,1.925,0,0,0-.33.035,2.082,2.082,0,0,0-1.6,2.077v.714a2.068,2.068,0,0,0,1.52,2.045,1.95,1.95,0,0,0,.6.047.959.959,0,0,1,1.005.8,9.836,9.836,0,0,0,19.352,0,.957.957,0,0,1,.953-.794h.2a1.969,1.969,0,0,0,1.969-1.969v-.985A1.969,1.969,0,0,0,109.087,86.879Z" transform="translate(-52.867 -72.198)" fill="#f0c087"/>
    <g id="Group_7938" data-name="Group 7938" transform="translate(24.707 29.527)">
      <path id="Path_2203" data-name="Path 2203" d="M111.47,237.331l-7.185-6.286a.985.985,0,0,0-1.345.045l-2.3,2.3,4.576,6.864a1.969,1.969,0,0,0,3.031.3Z" transform="translate(-90.789 -230.801)" fill="#dbd9dc"/>
      <path id="Path_2204" data-name="Path 2204" d="M184.151,237.331l7.185-6.286a.985.985,0,0,1,1.345.045l2.3,2.3-4.576,6.864a1.969,1.969,0,0,1-3.031.3Z" transform="translate(-163.47 -230.801)" fill="#dbd9dc"/>
      <path id="Path_2205" data-name="Path 2205" d="M29.871,292.2l-4.284-4.284a5.89,5.89,0,0,0-.875,3.318l.741,18.5a1.97,1.97,0,0,0,1.968,1.891H31.6V296.38A5.909,5.909,0,0,0,29.871,292.2Z" transform="translate(-24.707 -280.51)" fill="#dbd9dc"/>
    </g>
    <g id="Group_7939" data-name="Group 7939" transform="translate(53.645 36.009)">
      <path id="Path_2206" data-name="Path 2206" d="M316.015,283.987a1.072,1.072,0,0,1,1.071-1.071h6.427a1.072,1.072,0,0,1,1.071,1.071v4.284h2.142v-4.284a3.217,3.217,0,0,0-3.213-3.213h-6.427a3.217,3.217,0,0,0-3.213,3.213v4.284h2.142Z" transform="translate(-305.304 -280.774)" fill="#e48f0d"/>
      <path id="Path_2207" data-name="Path 2207" d="M247.809,371.613v15.1a3.1,3.1,0,0,0,3.1,3.1H274.7a3.1,3.1,0,0,0,3.1-3.1v-15.1Z" transform="translate(-247.809 -359.831)" fill="#e48f0d"/>
    </g>
    <path id="Path_2208" data-name="Path 2208" d="M255.618,344.247a32.046,32.046,0,0,0,5.356-.44l4.283-1.106c3.9-1.411,6.428-3.658,6.428-6.19v-2.975a3.213,3.213,0,0,0-3.213-3.213H242.764a3.213,3.213,0,0,0-3.213,3.213v2.975c0,2.531,2.525,4.778,6.428,6.19l4.283,1.106A32.045,32.045,0,0,0,255.618,344.247Z" transform="translate(-186.977 -287.887)" fill="#f9a21b"/>
    <g id="Group_7940" data-name="Group 7940" transform="translate(59 53.147)">
      <path id="Path_2209" data-name="Path 2209" d="M291.241,418.26h0a2.142,2.142,0,0,1-2.142-2.142v-2.142a1.071,1.071,0,0,1,1.071-1.071h2.142a1.071,1.071,0,0,1,1.071,1.071v2.142A2.142,2.142,0,0,1,291.241,418.26Z" transform="translate(-289.099 -412.904)"/>
      <path id="Path_2210" data-name="Path 2210" d="M406.854,418.26h0a2.142,2.142,0,0,1-2.142-2.142v-2.142a1.071,1.071,0,0,1,1.071-1.071h2.142A1.071,1.071,0,0,1,409,413.975v2.142A2.142,2.142,0,0,1,406.854,418.26Z" transform="translate(-389.716 -412.904)"/>
    </g>
    <g id="Group_7941" data-name="Group 7941" transform="translate(60.072 55.289)">
      <circle id="Ellipse_13" data-name="Ellipse 13" cx="1.071" cy="1.071" r="1.071" transform="translate(0)" fill="#dbd9dc"/>
      <circle id="Ellipse_14" data-name="Ellipse 14" cx="1.071" cy="1.071" r="1.071" transform="translate(14.995)" fill="#dbd9dc"/>
    </g>
  </g>
</svg>
