<?xml version="1.0" encoding="utf-8"?>
<!-- Generator: Adobe Illustrator 23.0.6, SVG Export Plug-In . SVG Version: 6.00 Build 0)  -->
<svg version="1.1" id="Layer_1" xmlns="http://www.w3.org/2000/svg" xmlns:xlink="http://www.w3.org/1999/xlink" x="0px" y="0px"
	 viewBox="0 0 60 60" style="enable-background:new 0 0 60 60;" xml:space="preserve">
<style type="text/css">
	.st0{fill:#00696E;}
	.st1{fill:#F9A21B;}
</style>
<g id="Group_8770">
	<path id="Path_33954" class="st0" d="M45.9,37.1c0,0.3-0.1,0.5-0.2,0.7v0.1l-6.6,11.4c-0.4,0.7-1.3,0.9-2,0.6
		c-0.2-0.2-0.4-0.3-0.6-0.6l-7-12.1l-7.9-13.6c-0.3-0.5-0.3-1,0-1.5l6.6-11.4c0.4-0.7,1.3-0.9,2-0.6c0.2,0.2,0.4,0.3,0.6,0.6
		l14.8,25.7C45.8,36.6,45.9,36.9,45.9,37.1 M14.3,39.3l5.7,10c0.4,0.7,1.3,0.9,2,0.6c0.2-0.2,0.4-0.3,0.6-0.6l7-12.1h-14
		c-0.8,0-1.5,0.7-1.5,1.5C14.2,38.9,14.2,39.1,14.3,39.3"/>
	<path id="Path_33955" class="st1" d="M45.9,37.1c0,0.3-0.1,0.5-0.2,0.7l-6.6,11.4c-0.4,0.7-1.3,0.9-2,0.6c-0.2-0.2-0.4-0.3-0.6-0.6
		l-7-12.1H45.9z"/>
</g>
</svg>
