<svg height="79.512" viewBox="0 0 336.184 79.512" width="336.184" xmlns="http://www.w3.org/2000/svg" xmlns:xlink="http://www.w3.org/1999/xlink"><clipPath id="a"><path d="m311.908 230.244h336.183v79.512h-336.183z"/></clipPath><g clip-path="url(#a)" transform="translate(-311.908 -230.244)"><path d="m374.995 284.208a2.751 2.751 0 0 1 -.335 1.351.356.356 0 0 1 -.041.092l-13.093 22.662a2.88 2.88 0 0 1 -4.987 0l-13.916-24.1-15.573-26.982a2.872 2.872 0 0 1 0-2.885l13.083-22.663a2.88 2.88 0 0 1 4.988 0l29.5 51.093a2.852 2.852 0 0 1 .376 1.432m-62.7 4.323 11.424 19.786a2.879 2.879 0 0 0 4.986 0l13.917-24.1h-27.832a2.879 2.879 0 0 0 -2.494 4.319" fill="#00696e"/><path d="m374.995 284.208a2.761 2.761 0 0 1 -.335 1.351l-13.134 22.753a2.879 2.879 0 0 1 -4.987 0l-13.917-24.1z" fill="#f9a21b"/><g fill="#00696e"><path d="m462.856 276.721a14.882 14.882 0 0 0 -8.535-2.362 17.9 17.9 0 0 0 -9.026 2.189 14.461 14.461 0 0 0 -5.859 6.218 20.314 20.314 0 0 0 -2.058 9.356q0 8.271 4.966 12.956t14.537 4.678a20.837 20.837 0 0 0 7.083-1.079 28.656 28.656 0 0 0 4.57-2.457 1.218 1.218 0 0 0 .4-1.646l-2.334-4.034a1.226 1.226 0 0 0 -1.612-.473 24.229 24.229 0 0 1 -2.9 1.225 15.479 15.479 0 0 1 -4.995.763c-3.195 0-5.57-.618-7.112-1.871a8.832 8.832 0 0 1 -3.021-5.413h21.462a1.224 1.224 0 0 0 1.224-1.223v-1.555a23.032 23.032 0 0 0 -1.646-8.924 13.971 13.971 0 0 0 -5.14-6.348m-15.819 12.005a8.363 8.363 0 0 1 2.417-4.967 6.735 6.735 0 0 1 4.649-1.7 6.379 6.379 0 0 1 4.55 1.67 9.236 9.236 0 0 1 2.461 5z"/><path d="m550.537 276.1h-6.577a1.225 1.225 0 0 0 -1.224 1.224v31.207a1.224 1.224 0 0 0 1.224 1.224h6.577a1.224 1.224 0 0 0 1.225-1.224v-31.206a1.225 1.225 0 0 0 -1.225-1.224"/><path d="m547.184 261.174a4.821 4.821 0 0 0 -3.541 1.455 5.176 5.176 0 0 0 0 7.225 4.82 4.82 0 0 0 3.541 1.454 5.054 5.054 0 0 0 3.642-1.454 5.141 5.141 0 0 0 0-7.225 5.054 5.054 0 0 0 -3.642-1.455"/><path d="m586.856 276.177a25.154 25.154 0 0 0 -2.5-.837 22.387 22.387 0 0 0 -5.831-.981 19.674 19.674 0 0 0 -9.471 2.188 15.02 15.02 0 0 0 -6.248 6.2 19.3 19.3 0 0 0 -2.2 9.386 18.992 18.992 0 0 0 2.2 9.328 14.756 14.756 0 0 0 6.248 6.132 19.655 19.655 0 0 0 9.471 2.16 24.361 24.361 0 0 0 6.032-.907 19.763 19.763 0 0 0 2.305-.734 1.207 1.207 0 0 0 .746-1.134v-5.377a1.223 1.223 0 0 0 -1.676-1.132 26.14 26.14 0 0 1 -3.031 1.021 16.045 16.045 0 0 1 -4.318.561 7.911 7.911 0 0 1 -6.247-2.778 10.471 10.471 0 0 1 -2.434-7.14 10.661 10.661 0 0 1 2.477-7.226 7.858 7.858 0 0 1 6.2-2.85 16.665 16.665 0 0 1 4.318.561 29.3 29.3 0 0 1 3.034 1.025 1.223 1.223 0 0 0 1.673-1.133v-5.2a1.212 1.212 0 0 0 -.756-1.136"/><path d="m615.854 281.629a.815.815 0 0 0 .707-1.223l-3.04-5.272a.878.878 0 0 0 -.765-.443h-4.965v-9.147a1.224 1.224 0 0 0 -1.439-1.205l-6.505 1.16a1.226 1.226 0 0 0 -1.009 1.206v7.986h-3.282a1.225 1.225 0 0 0 -1.224 1.225v4.484a1.224 1.224 0 0 0 1.224 1.224h3.282v15.893c0 3.843 1.2 6.822 3.54 8.953q3.543 3.2 9.861 3.2a12.342 12.342 0 0 0 3.3-.5 1.2 1.2 0 0 0 .86-1.16v-5.793a.776.776 0 0 0 -1.033-.731 7.968 7.968 0 0 1 -2.653.481 4.325 4.325 0 0 1 -3.642-1.684 6.926 6.926 0 0 1 -1.281-4.362v-14.292z"/><path d="m644.824 292.41a26.993 26.993 0 0 0 -8.19-4.591 26.607 26.607 0 0 1 -3.917-1.627c-.907-.49-1.367-1.023-1.367-1.627a2.519 2.519 0 0 1 1.166-2.044 4.5 4.5 0 0 1 2.865-.863 16.163 16.163 0 0 1 4.275.546 27.764 27.764 0 0 1 3.062 1.046 1.234 1.234 0 0 0 1.538-.513l2.194-3.807a1.24 1.24 0 0 0 -.488-1.7 25.249 25.249 0 0 0 -10.437-2.874c-4.03 0-7.226.908-9.572 2.75a8.995 8.995 0 0 0 -3.542 7.529 7.7 7.7 0 0 0 3.2 6.318 26.736 26.736 0 0 0 7.975 4.089q5.9 1.812 5.9 4.506c0 .935-.576 1.654-1.742 2.158a9.391 9.391 0 0 1 -3.814.763 20.062 20.062 0 0 1 -7.154-1.592 1.218 1.218 0 0 0 -1.654 1.14v5.015a1.2 1.2 0 0 0 .753 1.135 19.7 19.7 0 0 0 2.154.68 24.5 24.5 0 0 0 6.045.906q6.8 0 10.408-2.734a9.238 9.238 0 0 0 3.613-7.8 8.625 8.625 0 0 0 -3.268-6.809"/><path d="m493.183 276.228a14.787 14.787 0 0 0 -4.359 1.615 30.191 30.191 0 0 0 -5.686 3.872v-4.387a1.224 1.224 0 0 0 -1.224-1.223h-5.253a1.225 1.225 0 0 0 -1.224 1.224v31.207a1.224 1.224 0 0 0 1.224 1.224h6.578a1.225 1.225 0 0 0 1.224-1.224v-19.321a28.588 28.588 0 0 1 6.276-4.232 19.613 19.613 0 0 1 2.972-1.21 1.209 1.209 0 0 0 .886-1.145v-5.181a1.224 1.224 0 0 0 -1.414-1.219"/><path d="m531.867 261.174h-6.635a1.223 1.223 0 0 0 -1.224 1.223v14.193a16.658 16.658 0 0 0 -3.614-1.64 11.985 11.985 0 0 0 -3.525-.591 18.273 18.273 0 0 0 -9.242 2.231 14.622 14.622 0 0 0 -5.931 6.248 20.12 20.12 0 0 0 -2.045 9.3c0 5.4 1.513 9.7 4.55 12.869s7.154 4.75 12.38 4.75a14.461 14.461 0 0 0 9.716-3.887l.006.009v1.821a1.223 1.223 0 0 0 1.224 1.224h4.34a1.224 1.224 0 0 0 1.224-1.224v-45.3a1.223 1.223 0 0 0 -1.224-1.223m-7.859 38.1a16.461 16.461 0 0 1 -3.57 2.073 9.006 9.006 0 0 1 -3.513.7 7.005 7.005 0 0 1 -5.858-2.734 11.432 11.432 0 0 1 -2.115-7.183 11.724 11.724 0 0 1 2.144-7.27 6.968 6.968 0 0 1 5.829-2.806 9.948 9.948 0 0 1 3.614.662 13.322 13.322 0 0 1 3.469 2.187z"/><path d="m438.659 264.319h-7.484a1.165 1.165 0 0 0 -1.01.584l-16.358 28.271-16.42-28.447a.813.813 0 0 0 -.707-.407h-7.687a1.223 1.223 0 0 0 -1.059 1.835l24.812 42.989a1.224 1.224 0 0 0 2.121 0l24.853-42.989a1.225 1.225 0 0 0 -1.061-1.836"/></g></g></svg>