<svg id="Layer_1" data-name="Layer 1" xmlns="http://www.w3.org/2000/svg" xmlns:xlink="http://www.w3.org/1999/xlink" viewBox="0 0 870 650"><defs><style>.cls-1{fill:none;}.cls-2{clip-path:url(#clip-path);}.cls-3{clip-path:url(#clip-path-2);}.cls-4{fill:#c49756;}.cls-5{fill:#00696e;}.cls-6{fill:#f9a21b;}</style><clipPath id="clip-path"><rect class="cls-1" width="870" height="650"/></clipPath><clipPath id="clip-path-2"><rect class="cls-1" x="-168.34" y="-7.14" width="1301" height="662.76"/></clipPath></defs><title>verdicts pattern svg</title><g class="cls-2"><g class="cls-3"><path class="cls-4" d="M631.27,390.52H494.39a7,7,0,0,1-6.07-3.5L415.83,261.47a7,7,0,0,1,0-7l68.45-118.54a7,7,0,0,1,12.13,0L637.33,380A7,7,0,0,1,631.27,390.52Z"/><path class="cls-4" d="M419.88,512.56,484.28,401a7,7,0,0,0-6.07-10.51H349.42A7,7,0,0,0,343.35,401l64.4,111.53A7,7,0,0,0,419.88,512.56Z"/><path class="cls-4" d="M568.89,519.57l145-251.1a7,7,0,0,1,12.13,0L794.44,387a7,7,0,0,1,0,7l-145,251.1a7,7,0,0,1-12.14,0L568.89,526.57A7,7,0,0,1,568.89,519.57Z"/><path class="cls-5" d="M860.84,523.07H732.07A7,7,0,0,0,726,533.59l64.39,111.52a7,7,0,0,0,12.14,0l64.39-111.52A7,7,0,0,0,860.84,523.07Z"/><path class="cls-6" d="M190.29,380l64.4-111.54a7,7,0,0,0-6.07-10.5H119.83a7,7,0,0,0-6.07,10.5L178.16,380A7,7,0,0,0,190.29,380Z"/><path class="cls-4" d="M258.73,526.57,187.47,650h-151a6.94,6.94,0,0,1,.81-4.88L178.16,401a7,7,0,0,1,12.13,0l68.44,118.54A7,7,0,0,1,258.73,526.57Z"/><path class="cls-5" d="M401.68,523.07H272.89a7,7,0,0,0-6.07,10.51l64.4,111.54a7,7,0,0,0,12.13,0l64.4-111.54A7,7,0,0,0,401.68,523.07Z"/><polygon class="cls-5" points="274.67 16.96 264.52 0 264.87 0 274.67 16.96"/><path class="cls-5" d="M411.79,261.47,343.35,380a7,7,0,0,1-12.13,0l-140-242.45-.77-1.33-6.38-11-8.75-15-.16-.28L113.6,3.25A6.93,6.93,0,0,1,112.66,0H264.52l10.15,17,.18.31L411.79,254.46A7,7,0,0,1,411.79,261.47Z"/><polygon class="cls-5" points="175.34 110.2 184.09 125.25 184.06 125.3 175.34 110.2"/><path class="cls-4" d="M171.93,125.3H43.13a7,7,0,0,0-6.06,10.5l64.39,111.54a7,7,0,0,0,12.14,0L178,135.8A7,7,0,0,0,171.93,125.3Z"/><path class="cls-5" d="M870,.53V257.89a7.45,7.45,0,0,1-1.06.08H732.06A7,7,0,0,1,726,247.46L866.92,3.37A6.94,6.94,0,0,1,870,.53Z"/><path class="cls-5" d="M637.33,135.92,572.94,247.46A7,7,0,0,0,579,258H707.8a7,7,0,0,0,6.06-10.51L649.47,135.92A7,7,0,0,0,637.33,135.92Z"/><path class="cls-6" d="M554.74,523.07H425.94a7,7,0,0,0-6.06,10.51l64.39,111.54a7,7,0,0,0,12.14,0L560.8,533.58A7,7,0,0,0,554.74,523.07Z"/><path class="cls-4" d="M562.75,0,492.36,121.91a7,7,0,0,1-6.06,3.5H349.42a7,7,0,0,1-6.07-10.5L409.7,0Z"/><path class="cls-6" d="M714.81,0a6.94,6.94,0,0,1-.95,3.37L649.47,114.91a7,7,0,0,1-12.14,0L572.94,3.37A6.94,6.94,0,0,1,572,0Z"/><path class="cls-6" d="M870,265.64V390.52H808.6A7,7,0,0,1,802.53,380l64.39-111.52A6.83,6.83,0,0,1,870,265.64Z"/></g></g></svg>